<svg width="188" height="45" viewBox="0 0 188 45" fill="none" xmlns="http://www.w3.org/2000/svg">
<path d="M187.7 37V44.7H166.9V0H187.7V7.6H174.5V18.4H185V26.1H174.5V37H187.7ZM154.9 0H162.5V44.7H154.9V22.7L151.9 34.1H144.5L141.5 22.7V44.7H133.9V0H141.5L148.3 21.6L154.9 0ZM123 7.6H117.5V36.9H123V7.6ZM126 0C128.5 0 130.7 2.1 130.7 4.7V40C130.7 42.6 128.5 44.7 126 44.7H114.6C112 44.7 109.9 42.5 109.9 40V4.7C109.9 2.1 112 0 114.6 0H126ZM98 28.2L105.7 26.4V40C105.7 42.6 103.5 44.7 101 44.7H89.6C87 44.7 84.9 42.5 84.9 40V4.7C84.9 2.1 87 0 89.6 0H101C103.5 0 105.7 2.1 105.7 4.7V13.8L98 15.6V7.6H92.5V36.9H98V28.2ZM81.2 37V44.7H63V0H70.6V37H81.2ZM59.8 37V44.7H39V0H59.8V7.6H46.6V18.4H57.1V26.1H46.6V37H59.8ZM27.6 0H35.3L34 44.7H19.5L17.5 26.2L15.5 44.7H1L0 0H7.60001L8.2 37H9L13.8 0H21.4L26.3 37H27.1L27.6 0Z" fill="#81B3D3"/>
</svg>
